<svg width="200" height="192" viewBox="0 0 200 192" fill="none" xmlns="http://www.w3.org/2000/svg">
<path d="M10.0001 181.5H190" stroke="black" stroke-width="20" stroke-linecap="round"/>
<path d="M23.4638 159.037L49.7872 109.685C49.9447 109.389 50.3421 109.329 50.58 109.565L73.3175 132.054C73.5554 132.289 73.4996 132.687 73.2061 132.848L24.1451 159.711C23.7093 159.95 23.23 159.476 23.4638 159.037Z" fill="black" stroke="black" stroke-linejoin="round"/>
<rect x="146.253" y="13.0148" width="33.5445" height="129.259" rx="0.5" transform="rotate(45.0005 146.253 13.0148)" fill="black" stroke="black" stroke-linejoin="round"/>
<ellipse cx="157.696" cy="25.2598" rx="17.2474" ry="18.4615" transform="rotate(44.1666 157.696 25.2598)" fill="black"/>
<rect x="123.274" y="14.6289" width="6.66453" height="67.5989" rx="0.5" transform="rotate(44.2456 123.274 14.6289)" fill="black" stroke="black" stroke-linejoin="round"/>
<rect x="135.652" y="27.0026" width="6.66453" height="17.3399" rx="0.5" transform="rotate(137.132 135.652 27.0026)" fill="black" stroke="black" stroke-linejoin="round"/>
</svg>
